<svg xmlns="http://www.w3.org/2000/svg" xmlns:xlink="http://www.w3.org/1999/xlink" width="559" zoomAndPan="magnify" viewBox="0 0 419.25 297.75" height="397" preserveAspectRatio="xMidYMid meet" version="1.0"><defs><clipPath id="70d352f7e7"><path d="M 88.929688 9.300781 L 310.535156 9.300781 L 310.535156 270.445312 L 88.929688 270.445312 Z M 88.929688 9.300781 " clip-rule="nonzero"/></clipPath><clipPath id="d37228fc5e"><path d="M 90.25 11.277344 L 308.488281 11.277344 L 308.488281 270.445312 L 90.25 270.445312 Z M 90.25 11.277344 " clip-rule="nonzero"/></clipPath></defs><g clip-path="url(#70d352f7e7)"><path fill="#f47185" d="M 254.492188 236.113281 C 244.71875 235.011719 240.292969 235.589844 232.054688 228.050781 C 221.480469 218.378906 221.046875 208.851562 214.074219 199.039062 C 211.359375 195.214844 208.804688 194.078125 206.410156 195.640625 C 202.976562 199.363281 203.277344 217.011719 207.324219 248.582031 C 208.746094 259.082031 210.050781 265.820312 211.242188 268.792969 C 211.625 273.289062 198.09375 267.679688 196.488281 263.316406 C 194.523438 243.054688 193.941406 226.449219 194.742188 213.496094 C 194.925781 210.519531 195.605469 206.5 195.648438 202.675781 C 195.746094 194.480469 192.398438 188.019531 185.261719 196.988281 C 183.125 199.671875 181.011719 203.175781 179.246094 206.34375 C 173.875 215.960938 170.0625 222.683594 161.558594 230.492188 C 151.957031 239.3125 145.300781 242.207031 132.984375 244.398438 C 128.597656 245.179688 125.792969 245.921875 124.566406 246.621094 C 127.476562 242.761719 129.8125 239.265625 131.574219 236.128906 C 136.574219 227.242188 136.917969 220.964844 144.253906 211.679688 C 149.792969 204.675781 168.894531 193.414062 168.917969 189.375 C 168.929688 187.582031 167.101562 186.339844 163.722656 185.816406 C 143.972656 182.773438 138.464844 186 121.371094 170.714844 C 113.226562 163.433594 107.230469 154.300781 99.890625 146.28125 C 95.964844 141.996094 92.3125 138.453125 88.929688 135.65625 C 105.097656 133.878906 113.042969 140.199219 126.417969 146.09375 C 136.628906 150.597656 145.066406 151.640625 155.453125 157.367188 C 159.101562 159.378906 163.035156 161.789062 167.25 164.601562 C 171.179688 167.46875 174.609375 167.835938 175.660156 166.535156 C 176.550781 165.4375 175.742188 163.152344 172.109375 160.183594 C 161.367188 151.40625 152.316406 149.265625 141.902344 136.691406 C 139.191406 133.425781 136.921875 130.019531 135.089844 126.476562 C 131.441406 119.414062 130.410156 112.367188 128.003906 104.902344 C 124.703125 94.671875 120.386719 89.445312 119.289062 77.757812 C 118.769531 72.15625 119.175781 66.636719 120.519531 61.195312 C 125.589844 72.21875 135.636719 76.332031 142.328125 86.050781 C 147.117188 93.003906 147.730469 100.867188 152.488281 108.535156 C 157.046875 115.882812 163.421875 119.371094 168.433594 127.082031 C 169.910156 129.355469 172.453125 134.851562 175.246094 139.804688 C 178.769531 146.058594 182.621094 148.730469 184.65625 148.042969 C 186.351562 147.46875 186.789062 144.558594 184.726562 139.453125 C 183.582031 136.617188 181.546875 133.34375 178.867188 129.523438 C 170.988281 115.796875 165.664062 103.9375 162.90625 93.953125 C 159.085938 80.125 161.496094 64.679688 161.539062 50.203125 C 161.566406 38.539062 161.125 30.859375 160.203125 27.160156 C 164.753906 31.046875 168.550781 35.300781 171.585938 39.929688 C 177.546875 49.019531 178.410156 56.179688 181.375 65.96875 C 183.929688 74.402344 187.207031 80.433594 188.871094 89.558594 C 191.265625 102.675781 191.1875 114.351562 195.207031 127.765625 C 197.078125 134.023438 198.90625 137.300781 200.289062 137.171875 C 201.597656 137.046875 202.507812 133.890625 202.699219 127.339844 C 203.15625 111.613281 198.5 97.574219 196.519531 82.347656 C 195.210938 72.300781 195.136719 63.40625 196.289062 55.675781 C 198.539062 40.601562 211.453125 23.390625 207.714844 9.296875 C 210.867188 14.199219 213.410156 19.253906 215.34375 24.457031 C 220.453125 38.214844 219.042969 45.6875 219.929688 59.28125 C 220.601562 69.59375 224.074219 77.847656 223.824219 88.480469 C 223.542969 100.382812 218.066406 111.1875 215.65625 123.046875 C 214.8125 127.1875 211.839844 138.183594 219.105469 138.324219 C 223.886719 138.421875 226.164062 124.074219 227.199219 120.140625 C 230.433594 107.886719 232.992188 96.96875 238.234375 85.214844 C 240.644531 79.804688 243.253906 75.011719 246.054688 70.839844 C 254.996094 57.507812 269.636719 52.488281 276.347656 39.121094 C 276.878906 42.511719 277.074219 46.164062 276.929688 50.070312 C 276.546875 60.445312 273.707031 68.019531 272.078125 77.699219 C 269.195312 94.8125 267.253906 99.578125 256.050781 114.488281 C 249.296875 123.472656 241.914062 130.902344 234.601562 139.226562 C 230.910156 143.429688 228.160156 147.007812 226.351562 149.96875 C 223.738281 154.246094 223.046875 157.894531 224.492188 158.992188 C 225.566406 159.808594 227.816406 159.21875 231.328125 156.445312 C 234.207031 154.175781 237.679688 150.574219 241.753906 145.652344 C 246.25 140.386719 250.535156 135.667969 254.605469 131.496094 C 262.332031 123.582031 269.296875 117.644531 275.488281 113.679688 C 286.796875 106.445312 298.046875 108.296875 306.5 102.492188 C 306.089844 104.476562 305.230469 106.773438 303.921875 109.386719 C 299.894531 117.429688 295.285156 122 291.675781 131.058594 C 289.683594 136.058594 287.371094 141.132812 279.453125 148.09375 C 264.714844 161.03125 252.585938 163.726562 235.347656 170.253906 C 225.925781 173.820312 228.515625 176.566406 236.796875 177.503906 C 250.605469 179.0625 264.632812 172.394531 278.820312 171.898438 C 287.34375 171.601562 294.523438 173.109375 300.367188 176.425781 C 303.386719 178.171875 306.777344 179.257812 310.546875 179.691406 C 299.566406 186.539062 292.070312 196.726562 278.617188 198.976562 C 260.578125 202.003906 251.273438 191.683594 235.929688 189.429688 C 228.914062 188.402344 224.953125 191.53125 231.421875 196.746094 C 234.351562 199.105469 239.191406 201.636719 245.933594 204.335938 C 250.726562 206.273438 255.074219 208.933594 258.96875 212.304688 C 269.824219 221.695312 273.910156 237.503906 280.394531 242.539062 C 277.320312 242.765625 273.449219 242.355469 269.054688 241.035156 C 263.730469 239.4375 260.121094 236.746094 254.492188 236.113281 " fill-opacity="1" fill-rule="evenodd"/><path fill="#fbcbd5" d="M 209.144531 11.597656 C 209.808594 14.203125 210.378906 16.878906 210.859375 19.628906 C 211.496094 23.261719 211.96875 27.03125 212.28125 30.921875 C 213.410156 44.863281 212.0625 59.359375 210.71875 73.859375 C 209.898438 82.6875 209.078125 91.519531 208.820312 100.21875 C 208.75 102.585938 208.6875 104.921875 208.625 107.261719 C 208.257812 120.757812 207.886719 134.445312 206.46875 146.941406 C 205.917969 151.769531 205.351562 156.277344 204.796875 160.703125 C 204.210938 165.363281 203.636719 169.9375 203.121094 174.539062 C 206.96875 167.675781 210.8125 161.183594 214.652344 155.0625 C 219.101562 147.964844 223.53125 141.394531 227.9375 135.347656 C 231.566406 130.359375 234.96875 125.347656 238.144531 120.3125 C 241.328125 115.269531 244.292969 110.195312 247.023438 105.101562 C 249.433594 100.617188 251.671875 96.101562 253.738281 91.566406 C 255.800781 87.042969 257.699219 82.480469 259.429688 77.890625 C 261.199219 73.203125 263.71875 68.320312 266.25 63.40625 C 270.207031 55.730469 274.203125 47.984375 275.328125 40.984375 C 275.683594 40.378906 276.023438 39.761719 276.347656 39.121094 C 276.5 40.09375 276.625 41.085938 276.71875 42.105469 C 275.382812 49.101562 271.496094 56.644531 267.640625 64.121094 C 265.128906 68.996094 262.628906 73.839844 260.890625 78.441406 C 259.15625 83.050781 257.246094 87.640625 255.15625 92.214844 C 253.078125 96.777344 250.828125 101.316406 248.402344 105.832031 C 245.640625 110.976562 242.664062 116.082031 239.46875 121.144531 C 236.261719 126.226562 232.839844 131.265625 229.203125 136.261719 L 229.199219 136.261719 C 224.808594 142.28125 220.402344 148.824219 215.972656 155.886719 C 211.925781 162.34375 207.84375 169.261719 203.738281 176.640625 C 222.179688 168.488281 233.742188 162.273438 244.050781 154.820312 C 254.761719 147.082031 264.152344 137.988281 278.519531 124.003906 C 282.121094 120.5 286.902344 117.242188 291.550781 114.082031 C 296.808594 110.503906 301.894531 107.046875 304.761719 103.5625 C 305.351562 103.238281 305.933594 102.882812 306.5 102.492188 C 306.363281 103.15625 306.175781 103.851562 305.941406 104.582031 C 302.921875 108.234375 297.761719 111.742188 292.429688 115.375 C 287.839844 118.5 283.109375 121.714844 279.609375 125.125 C 265.183594 139.164062 255.753906 148.289062 244.96875 156.085938 C 234.917969 163.351562 223.710938 169.445312 206.222656 177.246094 C 214.4375 177.203125 224.347656 179.417969 234.757812 181.742188 C 246.207031 184.304688 258.257812 186.992188 269.160156 186.921875 C 278.988281 186.855469 286.28125 184.816406 293.800781 182.71875 C 298.273438 181.46875 302.824219 180.199219 308.042969 179.296875 C 308.859375 179.460938 309.691406 179.59375 310.546875 179.691406 C 310.003906 180.027344 309.472656 180.375 308.945312 180.726562 C 303.527344 181.625 298.828125 182.933594 294.214844 184.222656 C 286.601562 186.351562 279.210938 188.414062 269.164062 188.480469 C 258.089844 188.554688 245.949219 185.839844 234.417969 183.265625 C 223.449219 180.8125 213.039062 178.488281 204.746094 178.839844 C 210.4375 182.394531 217.710938 190.941406 224.847656 199.324219 C 230.789062 206.3125 236.640625 213.183594 241.261719 216.828125 C 246.03125 220.585938 250.019531 222.148438 254.246094 223.796875 C 256.722656 224.765625 259.277344 225.765625 262.121094 227.242188 C 266.1875 229.359375 268.972656 232.054688 271.761719 234.75 C 273.714844 236.644531 275.671875 238.539062 278.078125 240.207031 C 278.824219 241.125 279.589844 241.917969 280.394531 242.539062 C 279.917969 242.574219 279.421875 242.597656 278.910156 242.597656 C 275.578125 240.613281 273.121094 238.242188 270.671875 235.867188 C 267.972656 233.257812 265.269531 230.644531 261.394531 228.628906 C 258.613281 227.183594 256.105469 226.203125 253.679688 225.253906 C 249.347656 223.5625 245.261719 221.964844 240.296875 218.050781 C 235.539062 214.296875 229.644531 207.375 223.652344 200.335938 C 215.980469 191.3125 208.140625 182.105469 202.601562 179.421875 C 201.96875 185.753906 201.480469 192.207031 201.265625 199.0625 C 200.765625 215.117188 201.15625 229.5 202.4375 242.203125 C 203.5 252.695312 205.167969 262.042969 207.449219 270.246094 C 206.890625 270.128906 206.300781 269.96875 205.695312 269.769531 C 203.519531 261.703125 201.917969 252.566406 200.886719 242.359375 C 199.597656 229.589844 199.203125 215.144531 199.703125 199.019531 C 199.921875 192.113281 200.40625 185.640625 201.042969 179.300781 C 197.222656 180.390625 192.414062 183.636719 187.539062 187.695312 C 179.433594 194.4375 171.183594 203.390625 166.847656 208.472656 C 159.753906 216.789062 154.144531 223.367188 147.878906 229.429688 C 142.199219 234.921875 136 239.984375 127.691406 245.511719 C 126.238281 245.894531 125.195312 246.265625 124.566406 246.621094 C 125.023438 246.015625 125.46875 245.414062 125.898438 244.828125 C 134.59375 239.113281 140.972656 233.9375 146.789062 228.3125 C 153 222.300781 158.589844 215.75 165.660156 207.457031 C 170.027344 202.339844 178.34375 193.316406 186.539062 186.496094 C 190.984375 182.800781 195.40625 179.742188 199.1875 178.28125 C 195.34375 177.367188 190.03125 176.917969 183.9375 176.402344 C 172.152344 175.40625 157.492188 174.164062 144.503906 168.785156 C 133.753906 164.335938 124.390625 157.972656 115.335938 151.816406 C 107.15625 146.253906 99.222656 140.859375 90.808594 137.261719 C 90.175781 136.703125 89.546875 136.164062 88.929688 135.65625 C 89.507812 135.589844 90.078125 135.539062 90.632812 135.496094 C 99.488281 139.152344 107.71875 144.746094 116.214844 150.523438 C 125.210938 156.640625 134.507812 162.960938 145.09375 167.34375 C 157.851562 172.625 172.386719 173.855469 184.066406 174.84375 C 189.863281 175.332031 194.964844 175.765625 198.863281 176.609375 C 193.59375 171.925781 188.695312 167.449219 184.167969 163.183594 C 178.902344 158.222656 174.117188 153.527344 169.808594 149.097656 C 161.894531 140.964844 156.589844 135.015625 152.09375 128.648438 C 147.597656 122.277344 143.929688 115.503906 139.285156 105.726562 C 137.238281 101.40625 135.136719 97.398438 133.078125 93.457031 C 128.015625 83.789062 123.175781 74.550781 120.128906 62.898438 C 120.25 62.328125 120.378906 61.761719 120.519531 61.195312 C 121 62.246094 121.527344 63.226562 122.089844 64.160156 C 125.109375 74.882812 129.683594 83.617188 134.457031 92.738281 C 136.542969 96.71875 138.671875 100.78125 140.699219 105.0625 C 145.300781 114.757812 148.933594 121.460938 153.375 127.75 C 157.816406 134.042969 163.078125 139.9375 170.925781 148.011719 C 175.214844 152.417969 179.984375 157.09375 185.238281 162.046875 C 190.042969 166.570312 195.238281 171.3125 200.820312 176.261719 C 197.902344 158.644531 192.097656 144.777344 186.289062 130.910156 C 181.890625 120.402344 177.488281 109.894531 174.320312 97.714844 C 172.082031 89.101562 170.992188 79.847656 169.898438 70.542969 C 168.21875 56.320312 166.527344 41.976562 160.699219 29.855469 C 160.550781 28.800781 160.386719 27.902344 160.203125 27.160156 C 160.75 27.632812 161.289062 28.105469 161.816406 28.582031 C 167.996094 41.066406 169.730469 55.777344 171.449219 70.371094 C 172.539062 79.625 173.625 88.832031 175.832031 97.324219 C 178.96875 109.378906 183.351562 119.84375 187.734375 130.3125 C 193.203125 143.367188 198.671875 156.425781 201.761719 172.632812 C 202.226562 168.609375 202.730469 164.59375 203.242188 160.515625 C 203.808594 156 204.386719 151.40625 204.910156 146.773438 C 206.328125 134.308594 206.699219 120.671875 207.066406 107.226562 C 207.125 104.851562 207.191406 102.484375 207.261719 100.179688 C 207.519531 91.4375 208.339844 82.578125 209.160156 73.71875 C 210.5 59.296875 211.835938 44.882812 210.722656 31.046875 C 210.414062 27.203125 209.945312 23.488281 209.320312 19.894531 C 209.039062 18.289062 208.726562 16.714844 208.382812 15.164062 C 208.417969 13.160156 208.222656 11.203125 207.714844 9.296875 C 208.207031 10.058594 208.683594 10.824219 209.144531 11.597656 " fill-opacity="1" fill-rule="evenodd"/></g><g clip-path="url(#d37228fc5e)"><path fill="#f0394d" d="M 269.160156 186.921875 C 258.257812 186.992188 246.207031 184.304688 234.757812 181.742188 C 224.347656 179.417969 214.4375 177.203125 206.222656 177.246094 C 223.710938 169.445312 234.917969 163.351562 244.96875 156.085938 C 255.753906 148.289062 265.183594 139.164062 279.609375 125.125 C 283.109375 121.714844 287.839844 118.5 292.429688 115.375 C 297.761719 111.742188 302.921875 108.234375 305.941406 104.582031 C 305.464844 106.042969 304.792969 107.644531 303.921875 109.386719 C 299.894531 117.429688 295.285156 122 291.675781 131.058594 C 289.683594 136.058594 287.371094 141.136719 279.453125 148.09375 C 264.714844 161.03125 252.585938 163.726562 235.347656 170.253906 C 225.925781 173.820312 228.515625 176.566406 236.796875 177.503906 C 250.605469 179.0625 264.632812 172.394531 278.820312 171.898438 C 287.34375 171.601562 294.523438 173.109375 300.367188 176.425781 C 302.699219 177.777344 305.261719 178.734375 308.042969 179.296875 C 302.824219 180.199219 298.273438 181.46875 293.800781 182.71875 C 286.28125 184.816406 278.988281 186.855469 269.160156 186.921875 Z M 238.144531 120.3125 C 241.328125 115.269531 244.292969 110.195312 247.023438 105.101562 C 249.433594 100.617188 251.671875 96.101562 253.738281 91.566406 C 255.800781 87.042969 257.699219 82.480469 259.429688 77.890625 C 261.199219 73.203125 263.71875 68.320312 266.25 63.40625 C 270.207031 55.730469 274.203125 47.984375 275.328125 40.984375 C 268.246094 52.988281 254.566406 58.148438 246.054688 70.839844 C 243.253906 75.011719 240.644531 79.804688 238.234375 85.214844 C 232.992188 96.96875 230.433594 107.886719 227.199219 120.140625 C 226.164062 124.074219 223.886719 138.421875 219.105469 138.324219 C 211.839844 138.183594 214.8125 127.1875 215.65625 123.046875 C 218.066406 111.1875 223.542969 100.382812 223.824219 88.480469 C 224.074219 77.847656 220.601562 69.59375 219.929688 59.28125 C 219.042969 45.6875 220.453125 38.214844 215.34375 24.457031 C 213.710938 20.0625 211.644531 15.777344 209.144531 11.597656 C 209.808594 14.203125 210.378906 16.878906 210.859375 19.628906 C 211.496094 23.261719 211.96875 27.03125 212.28125 30.921875 C 213.410156 44.863281 212.0625 59.359375 210.71875 73.859375 C 209.898438 82.6875 209.078125 91.523438 208.820312 100.21875 C 208.75 102.585938 208.6875 104.921875 208.625 107.261719 C 208.257812 120.757812 207.886719 134.445312 206.46875 146.941406 C 205.917969 151.769531 205.351562 156.277344 204.796875 160.703125 C 204.210938 165.363281 203.636719 169.9375 203.121094 174.539062 C 206.96875 167.675781 210.8125 161.183594 214.652344 155.0625 C 219.101562 147.964844 223.53125 141.394531 227.9375 135.347656 C 231.566406 130.359375 234.96875 125.347656 238.144531 120.3125 Z M 168.433594 127.082031 C 169.910156 129.355469 172.453125 134.851562 175.246094 139.804688 C 178.769531 146.058594 182.621094 148.730469 184.65625 148.042969 C 186.351562 147.46875 186.789062 144.558594 184.726562 139.453125 C 183.582031 136.617188 181.546875 133.34375 178.867188 129.523438 C 170.988281 115.796875 165.664062 103.9375 162.90625 93.953125 C 159.085938 80.125 161.496094 64.679688 161.539062 50.203125 C 161.5625 40.871094 161.28125 34.089844 160.699219 29.855469 C 166.527344 41.976562 168.21875 56.320312 169.898438 70.542969 C 170.992188 79.847656 172.082031 89.101562 174.320312 97.714844 C 177.488281 109.894531 181.890625 120.402344 186.289062 130.910156 C 192.097656 144.777344 197.902344 158.644531 200.820312 176.261719 C 195.238281 171.3125 190.042969 166.570312 185.238281 162.046875 C 179.984375 157.09375 175.214844 152.417969 170.925781 148.011719 C 163.078125 139.9375 157.816406 134.042969 153.375 127.75 C 148.933594 121.460938 145.300781 114.757812 140.699219 105.0625 C 138.667969 100.78125 136.542969 96.71875 134.457031 92.738281 C 129.683594 83.617188 125.109375 74.882812 122.089844 64.160156 C 127.464844 73.050781 136.269531 77.253906 142.328125 86.050781 C 147.117188 93.003906 147.730469 100.867188 152.488281 108.535156 C 157.046875 115.882812 163.421875 119.371094 168.433594 127.082031 Z M 183.9375 176.402344 C 172.152344 175.40625 157.492188 174.164062 144.503906 168.785156 C 133.753906 164.335938 124.390625 157.972656 115.335938 151.816406 C 107.15625 146.253906 99.222656 140.859375 90.808594 137.261719 C 93.65625 139.773438 96.683594 142.78125 99.890625 146.28125 C 107.230469 154.300781 113.226562 163.433594 121.371094 170.714844 C 138.464844 186 143.972656 182.773438 163.722656 185.820312 C 167.101562 186.339844 168.929688 187.582031 168.917969 189.375 C 168.894531 193.414062 149.792969 204.675781 144.253906 211.679688 C 136.917969 220.964844 136.574219 227.242188 131.574219 236.128906 C 130.089844 238.769531 128.195312 241.667969 125.898438 244.828125 C 134.59375 239.113281 140.972656 233.9375 146.789062 228.3125 C 153 222.300781 158.589844 215.75 165.660156 207.457031 C 170.027344 202.339844 178.34375 193.316406 186.539062 186.496094 C 190.984375 182.800781 195.40625 179.742188 199.1875 178.28125 C 195.34375 177.367188 190.03125 176.917969 183.9375 176.402344 Z M 253.679688 225.253906 C 249.347656 223.5625 245.261719 221.964844 240.296875 218.050781 C 235.539062 214.296875 229.644531 207.375 223.652344 200.335938 C 215.980469 191.3125 208.140625 182.105469 202.601562 179.421875 C 201.96875 185.753906 201.480469 192.207031 201.265625 199.0625 C 200.765625 215.117188 201.15625 229.5 202.4375 242.203125 C 203.5 252.695312 205.167969 262.042969 207.449219 270.246094 C 209.710938 270.71875 211.378906 270.410156 211.242188 268.792969 C 210.050781 265.820312 208.746094 259.082031 207.324219 248.582031 C 203.277344 217.011719 202.976562 199.363281 206.410156 195.640625 C 208.804688 194.078125 211.359375 195.210938 214.074219 199.039062 C 221.046875 208.851562 221.476562 218.378906 232.054688 228.050781 C 240.292969 235.589844 244.71875 235.011719 254.492188 236.113281 C 260.121094 236.746094 263.730469 239.4375 269.054688 241.035156 C 272.769531 242.152344 276.109375 242.617188 278.910156 242.597656 C 275.578125 240.613281 273.121094 238.242188 270.671875 235.867188 C 267.972656 233.257812 265.269531 230.644531 261.394531 228.628906 C 258.613281 227.183594 256.105469 226.203125 253.679688 225.253906 " fill-opacity="1" fill-rule="evenodd"/></g></svg>