<svg xmlns="http://www.w3.org/2000/svg" xmlns:xlink="http://www.w3.org/1999/xlink" width="559" zoomAndPan="magnify" viewBox="0 0 419.25 297.75" height="397" preserveAspectRatio="xMidYMid meet" version="1.0"><defs><clipPath id="287ada3e97"><path d="M 0 0.140625 L 418.5 0.140625 L 418.5 297.359375 L 0 297.359375 Z M 0 0.140625 " clip-rule="nonzero"/></clipPath><clipPath id="8a82019c9a"><path d="M 131.898438 24.394531 L 286.605469 24.394531 L 286.605469 254.210938 L 131.898438 254.210938 Z M 131.898438 24.394531 " clip-rule="nonzero"/></clipPath><clipPath id="8fd7fec025"><path d="M 132 24.394531 L 286.605469 24.394531 L 286.605469 243.605469 L 132 243.605469 Z M 132 24.394531 " clip-rule="nonzero"/></clipPath></defs><g clip-path="url(#287ada3e97)"><path fill="#ffffff" d="M 0 0.140625 L 418.5 0.140625 L 418.5 297.359375 L 0 297.359375 Z M 0 0.140625 " fill-opacity="1" fill-rule="nonzero"/><path fill="#ffffff" d="M 0 0.140625 L 418.5 0.140625 L 418.5 297.359375 L 0 297.359375 Z M 0 0.140625 " fill-opacity="1" fill-rule="nonzero"/></g><g clip-path="url(#8a82019c9a)"><path fill="#8bd6ae" d="M 224.324219 87.578125 C 222.140625 85.042969 227 81.003906 228.878906 79.867188 C 233.585938 77.023438 236.351562 77.464844 236.84375 79.203125 C 237.28125 80.738281 235.953125 83.28125 232.640625 85.46875 C 231.074219 86.503906 225.867188 89.359375 224.324219 87.578125 Z M 188.300781 94.1875 C 185.539062 96.925781 177.542969 90.105469 180.707031 88.019531 C 182.121094 87.082031 184.039062 87.613281 185.628906 88.777344 C 187.941406 90.472656 189.402344 93.089844 188.300781 94.1875 Z M 201.546875 99.816406 C 197.957031 100.824219 193.351562 92.648438 192.035156 90.148438 C 191.089844 88.355469 190.445312 86.589844 191.695312 85.769531 C 194.972656 83.628906 198.523438 86.1875 200.925781 89.589844 C 202.503906 91.835938 206.039062 98.550781 201.546875 99.816406 Z M 178.402344 130.335938 C 177.664062 129.433594 176.453125 129.234375 176.007812 128.3125 C 175.691406 127.664062 176.011719 127.039062 176.710938 126.703125 C 179.121094 125.550781 182.683594 127.585938 183.5625 129.765625 C 184.4375 131.929688 182.355469 135.152344 178.402344 130.335938 Z M 200.039062 140.101562 C 199.539062 139.761719 199.058594 139.457031 198.589844 139.1875 C 195.089844 137.160156 192.503906 137.238281 189.589844 133.5 C 187.25 130.496094 185.5625 122.609375 190.078125 122.105469 C 194.210938 121.640625 194.917969 126.765625 196.800781 129.253906 C 197.777344 130.542969 199.113281 131.777344 200.816406 132.953125 C 202.5 134.351562 206.335938 138.164062 203.988281 140.433594 C 203.195312 141.203125 201.765625 141.285156 200.039062 140.101562 Z M 147.851562 110.027344 C 142.941406 104.761719 148.171875 101.601562 150.523438 106.484375 C 152.066406 109.695312 150.960938 113.355469 147.851562 110.027344 Z M 163.40625 147.816406 C 166.039062 146.21875 171.457031 148.710938 173.910156 149.882812 C 176.875 151.300781 179.378906 153.261719 182.109375 154.582031 C 182.949219 154.988281 183.738281 155.25 184.480469 155.371094 C 185.8125 155.5625 186.804688 156.5625 186.730469 157.570312 C 186.542969 160.109375 181.375 160.199219 175.816406 158.589844 C 173.386719 157.882812 158.535156 150.765625 163.40625 147.816406 Z M 181.070312 198.730469 C 179.746094 194.96875 191.835938 192.96875 194.335938 195.140625 C 195.304688 195.984375 194.792969 198.078125 194.039062 199.015625 C 193.113281 200.167969 191.089844 200.859375 188.902344 201.082031 C 185.519531 201.425781 181.746094 200.648438 181.070312 198.730469 Z M 169.0625 192.71875 C 169.292969 194.769531 166.230469 194.367188 164.378906 192.816406 C 162.445312 191.191406 162.46875 188.113281 165.234375 188.871094 C 166.820312 189.300781 168.675781 190.980469 169.0625 192.71875 Z M 242.382812 192.460938 C 242.6875 191.890625 243.550781 191.644531 244.503906 191.6875 C 245.984375 191.757812 247.6875 192.527344 247.867188 193.882812 C 248.042969 195.214844 246.925781 195.648438 245.632812 195.457031 C 244.511719 195.292969 241.628906 193.871094 242.382812 192.460938 Z M 259.390625 195.433594 C 254.328125 196.5 251.613281 194.5 252.238281 193.015625 C 252.984375 191.25 256.402344 191.789062 258.042969 191.546875 C 259.535156 191.324219 263.375 189.871094 264.171875 191.542969 C 264.710938 192.667969 262.96875 194.683594 259.390625 195.433594 Z M 239.007812 127.210938 C 237.136719 128.210938 228.167969 132.695312 228.292969 128.175781 C 228.382812 124.984375 233.03125 122.726562 235.476562 121.234375 C 237.332031 120.101562 239.113281 118.953125 240.816406 117.796875 C 244.523438 115.257812 247.550781 114.957031 248.925781 115.9375 C 253.171875 118.945312 241.484375 125.882812 239.007812 127.210938 Z M 259.597656 106.675781 C 264.941406 103.496094 267.046875 107.824219 261.964844 111.507812 C 259.59375 113.230469 256.589844 113.949219 255.917969 112.078125 C 255.3125 110.398438 257.3125 108.039062 259.597656 106.675781 Z M 254.640625 151.769531 C 248.519531 155.648438 244.820312 154.742188 243.65625 152.996094 C 241.871094 150.320312 246.429688 148.402344 248.308594 146.976562 C 250.484375 145.328125 252.300781 143.214844 255 142.40625 C 256.917969 141.835938 258.621094 142.078125 259.609375 142.894531 C 261.421875 144.402344 260.804688 147.859375 254.640625 151.769531 Z M 211.003906 208.453125 C 211.445312 218.390625 212.1875 226.722656 213.230469 233.449219 C 214.046875 238.734375 216.101562 250.554688 221.097656 253.828125 C 221.632812 254.179688 222.15625 254.351562 222.519531 254.074219 C 223.601562 253.257812 223.5 249.691406 226.253906 245.542969 C 227.886719 243.078125 228.667969 240.457031 228.816406 239.28125 C 228.988281 237.90625 225.570312 233.5625 224.808594 231.984375 C 223.253906 228.753906 222.15625 225.671875 221.269531 222.523438 C 219.90625 217.679688 219.042969 212.671875 217.796875 206.703125 C 216.894531 202.398438 216.054688 198.378906 215.277344 194.640625 C 214.8125 192.726562 214.503906 190.996094 214.363281 189.492188 C 213.597656 181.476562 217.292969 180.382812 220.417969 188.699219 C 223.761719 197.605469 225.742188 204.210938 236.71875 207.152344 C 248.089844 210.195312 258.316406 205.261719 266.617188 197.675781 C 271.667969 193.066406 275.578125 187.445312 278.355469 180.820312 C 281.308594 173.839844 285.421875 168.515625 285.074219 164.644531 C 283.339844 167.109375 281.585938 169.117188 279.808594 170.664062 C 275.933594 174.039062 272.539062 173.824219 268.839844 177.308594 C 265.722656 180.242188 264.914062 183.015625 260.625 184.855469 C 258.085938 185.945312 255.492188 186.105469 253.941406 185.261719 C 252.390625 184.414062 251.894531 182.550781 253.574219 179.601562 C 254.9375 177.214844 257.855469 174.945312 262.328125 172.796875 C 273.734375 168.613281 280.855469 163.609375 283.691406 157.792969 C 285.640625 153.792969 284.75 151.207031 285.363281 147.230469 C 286.039062 142.847656 287.039062 142.058594 286.398438 136.847656 C 285.941406 133.160156 283.601562 123.148438 285.527344 120.582031 C 284.265625 120.503906 283.15625 121.125 282.199219 122.4375 C 280.585938 124.660156 279.746094 128.457031 278.394531 131.148438 C 276.933594 134.058594 275.199219 136.378906 273.1875 138.113281 C 271.5625 139.515625 266.042969 143.558594 264.652344 140.160156 C 264.363281 139.460938 264.378906 138.601562 264.695312 137.582031 C 265.863281 133.804688 269.386719 130.816406 271.929688 127.898438 C 277.492188 121.511719 280.390625 116.03125 280.617188 111.460938 C 280.808594 107.648438 277.878906 102.699219 276.570312 98.84375 C 274.601562 93.039062 275.445312 87.292969 273.644531 83.203125 C 272.96875 81.65625 272.015625 80.597656 270.792969 80.015625 C 270.390625 79.949219 270.042969 80.058594 269.742188 80.355469 C 268.546875 81.523438 265.976562 90.59375 260.632812 96.113281 C 257.335938 99.519531 242.15625 111.226562 238.101562 106.914062 C 236.355469 105.054688 240.167969 101.476562 241.476562 100.421875 C 243.164062 99.0625 245.269531 97.863281 247.785156 96.835938 C 250.785156 95.574219 253.253906 93.96875 255.1875 92.023438 C 258.800781 88.382812 258.71875 85.632812 260.925781 81.75 C 262.050781 79.773438 265.351562 76.867188 265.328125 75.484375 C 265.308594 74.140625 264.308594 72.308594 262.324219 69.984375 C 259.957031 67.34375 257.925781 64.738281 256.230469 62.167969 C 253.378906 57.835938 252.132812 53.042969 248.96875 49.332031 C 247.03125 47.054688 244.03125 44.980469 243.164062 49.160156 C 241.964844 54.945312 243.0625 55.003906 239.246094 61.070312 C 236.921875 64.769531 229.988281 74.484375 225.050781 71.257812 C 223.367188 70.160156 223.21875 67.382812 225.792969 63.824219 C 228.9375 59.476562 237.046875 54.023438 237.328125 48.632812 C 237.386719 47.519531 236.972656 46.632812 236.085938 45.980469 C 232.972656 43.179688 230.03125 39.4375 226.980469 35.816406 C 223.191406 31.320312 219.234375 27.011719 214.582031 24.949219 C 213.855469 24.628906 212.976562 24.339844 212.160156 24.402344 C 210.855469 24.503906 207.515625 28.003906 205.957031 29.097656 C 201.089844 32.511719 197.433594 33.167969 193.199219 38.484375 C 190.457031 41.921875 188.871094 46.402344 188.046875 51.167969 C 186.839844 58.152344 188.871094 72.074219 186.914062 76 C 183.539062 82.78125 177.777344 77.273438 177.535156 70.601562 C 177.273438 63.527344 180.386719 57.765625 181.980469 51.082031 C 182.972656 46.921875 183.28125 43.214844 180.84375 44.210938 C 179.855469 44.613281 175.710938 49.375 174.070312 50.757812 C 171.492188 52.929688 168.21875 55.492188 165.398438 58.113281 C 161.476562 61.75 158.425781 65.5 159.304688 68.46875 C 156.601562 65.777344 151.9375 73.433594 151.027344 75.714844 C 149.957031 78.417969 151.332031 79.808594 152.164062 82.285156 C 153.386719 85.925781 153.429688 87.558594 155.808594 91.113281 C 159.796875 97.078125 167.53125 104.34375 179.015625 112.917969 C 180.285156 113.914062 181.292969 114.871094 182.03125 115.789062 C 186.8125 121.730469 179.933594 125.914062 173.207031 120.347656 C 168.230469 116.230469 164.25 108.960938 158.6875 103.757812 C 154.257812 99.617188 150.96875 98.304688 148.265625 92.617188 C 146.980469 89.917969 145.8125 86.503906 144.761719 82.378906 C 144.507812 87.570312 139.566406 89.605469 138.558594 93.980469 C 137.679688 97.78125 138.730469 101.207031 137.664062 104.8125 C 136.847656 107.5625 134.445312 110.125 134.824219 112.523438 C 135.179688 114.804688 137.007812 117.980469 140.300781 122.042969 C 144.96875 128.007812 149.773438 133.308594 154.714844 137.960938 C 156.289062 139.453125 157.3125 140.886719 157.789062 142.261719 C 158.5 144.3125 158.117188 145.816406 157.113281 146.609375 C 155.980469 147.5 154.066406 147.480469 152.058594 146.3125 C 147.417969 143.613281 143.90625 136.179688 140.339844 131.789062 C 137.585938 128.394531 134.769531 125.835938 131.898438 124.113281 C 135.132812 132.246094 130.773438 138.640625 132.707031 147.199219 C 133.589844 151.113281 135.617188 152.472656 137.480469 155.722656 C 139.941406 160.007812 139.425781 164.863281 142.191406 167.960938 C 144.910156 171.003906 157.988281 172.671875 162.804688 173.914062 C 169.957031 175.757812 174.839844 177.542969 178.152344 179.777344 C 184.757812 184.234375 182.152344 190.113281 174.847656 187.617188 C 169.804688 185.894531 167.628906 182.203125 161.839844 180.882812 C 155.6875 179.480469 150.726562 181.664062 145.792969 175.261719 C 147.019531 178.054688 148.699219 180.492188 150.832031 182.574219 C 155.53125 187.445312 153.855469 191.058594 160.484375 195.742188 C 164.675781 198.703125 169.121094 199.75 173.277344 202.382812 C 178.8125 205.886719 180.386719 210.605469 188.359375 209.878906 C 196.035156 209.179688 199.761719 201.265625 203.296875 195.320312 C 207.507812 188.230469 208.945312 185.085938 209.710938 186.195312 C 210.726562 187.476562 211.160156 194.894531 211.003906 208.453125 " fill-opacity="1" fill-rule="evenodd"/></g><g clip-path="url(#8fd7fec025)"><path fill="#274393" d="M 278.6875 104.023438 L 278.679688 104 L 278.667969 103.980469 L 278.664062 103.960938 L 278.652344 103.941406 L 278.652344 103.933594 L 278.644531 103.917969 L 278.628906 103.878906 L 278.617188 103.859375 L 278.609375 103.835938 L 278.59375 103.796875 L 278.582031 103.773438 L 278.566406 103.734375 L 278.5625 103.730469 L 278.558594 103.714844 L 278.546875 103.695312 L 278.53125 103.652344 L 278.523438 103.632812 L 278.511719 103.609375 L 278.488281 103.550781 L 278.480469 103.527344 L 278.476562 103.523438 L 278.46875 103.507812 L 278.445312 103.449219 L 278.425781 103.40625 L 278.417969 103.386719 L 278.410156 103.363281 L 278.394531 103.324219 L 278.390625 103.320312 L 278.382812 103.304688 L 278.375 103.285156 L 278.363281 103.261719 L 278.339844 103.203125 L 278.328125 103.179688 L 278.304688 103.121094 L 278.300781 103.117188 L 278.296875 103.101562 L 278.285156 103.078125 L 278.261719 103.019531 L 278.253906 102.996094 L 278.242188 102.976562 L 278.226562 102.9375 L 278.214844 102.917969 L 278.214844 102.914062 L 278.199219 102.875 L 278.191406 102.851562 L 278.179688 102.835938 L 278.171875 102.8125 L 278.15625 102.773438 L 278.144531 102.75 L 278.136719 102.730469 C 278.324219 103.164062 278.511719 103.605469 278.695312 104.042969 Z M 268.21875 116.785156 L 267.210938 117.988281 C 267.34375 118.152344 267.492188 118.28125 267.652344 118.371094 C 269.425781 119.359375 276.058594 116.445312 273.402344 126.152344 C 278.007812 120.503906 280.414062 115.609375 280.617188 111.460938 C 280.726562 109.226562 279.769531 106.605469 278.695312 104.042969 C 277.085938 107.40625 274.390625 110.207031 271.726562 112.976562 C 270.507812 114.246094 269.296875 115.503906 268.21875 116.785156 Z M 270.980469 112.261719 C 273.808594 109.324219 276.664062 106.355469 278.136719 102.730469 C 277.554688 101.375 276.980469 100.054688 276.570312 98.84375 C 274.601562 93.039062 275.445312 87.292969 273.644531 83.203125 C 272.96875 81.65625 272.015625 80.597656 270.792969 80.015625 C 270.390625 79.949219 270.042969 80.058594 269.742188 80.355469 C 268.59375 81.472656 266.1875 89.839844 261.296875 95.394531 L 261.300781 95.394531 C 266.085938 95.589844 267.941406 99.335938 266.855469 106.636719 C 266.148438 111.710938 266.097656 115.164062 266.699219 116.996094 L 267.429688 116.121094 C 268.550781 114.792969 269.765625 113.527344 270.980469 112.261719 Z M 285.527344 120.582031 C 284.265625 120.503906 283.15625 121.125 282.199219 122.4375 C 280.585938 124.660156 279.746094 128.457031 278.394531 131.148438 C 276.933594 134.058594 275.199219 136.378906 273.1875 138.113281 C 272.402344 138.792969 270.703125 140.085938 269 140.859375 C 274.734375 140.457031 277.359375 142.351562 276.871094 146.539062 C 280.835938 143.5 283.972656 141.128906 286.601562 140.085938 C 286.617188 139.203125 286.5625 138.167969 286.398438 136.847656 C 285.941406 133.160156 283.601562 123.148438 285.527344 120.582031 Z M 247.785156 96.835938 C 250.785156 95.574219 253.253906 93.96875 255.1875 92.023438 C 258.800781 88.382812 258.71875 85.632812 260.925781 81.75 C 262.050781 79.773438 265.351562 76.867188 265.328125 75.484375 C 265.308594 74.140625 264.308594 72.308594 262.324219 69.984375 C 261.476562 69.039062 260.675781 68.101562 259.914062 67.164062 C 256.339844 73.296875 251.921875 78.804688 246.917969 83.761719 C 248.4375 88.523438 251.554688 90.214844 247.785156 96.835938 Z M 213.609375 172.898438 C 213.292969 167.121094 213.121094 161.335938 212.925781 155.554688 C 223.859375 151.738281 234.359375 146.726562 243.953125 140.207031 C 254.761719 132.867188 258.96875 127.839844 266.199219 119.195312 L 267.210938 117.988281 C 267.003906 117.742188 266.835938 117.410156 266.699219 116.996094 L 265.410156 118.53125 C 258.234375 127.109375 254.058594 132.101562 243.375 139.355469 C 233.949219 145.753906 223.621094 150.707031 212.890625 154.476562 C 212.566406 145.109375 212.167969 134.429688 211.285156 122.269531 C 210.941406 117.515625 210.730469 112.78125 210.621094 108.09375 C 223.667969 101.9375 236.546875 94.035156 246.917969 83.761719 C 246.800781 83.398438 246.695312 83.019531 246.601562 82.621094 C 236.351562 92.90625 223.558594 100.808594 210.597656 106.964844 C 210.335938 93.183594 210.976562 79.808594 211.863281 67.324219 C 215.707031 63.457031 219.152344 59.292969 222.195312 54.855469 C 222.117188 54.324219 222.070312 53.773438 222.070312 53.195312 C 219.109375 57.652344 215.742188 61.84375 211.976562 65.738281 C 212.6875 55.960938 213.597656 46.203125 214.339844 36.433594 C 214.636719 32.449219 214.296875 28.496094 213.574219 24.578125 C 213.21875 24.476562 212.851562 24.40625 212.492188 24.398438 C 213.246094 28.34375 213.609375 32.335938 213.308594 36.355469 C 213.007812 40.292969 212.65625 44.480469 212.292969 48.828125 C 211.761719 55.148438 211.203125 61.8125 210.726562 68.75 C 201.433594 60.582031 195.90625 50.191406 193.503906 38.109375 C 193.214844 38.457031 192.933594 38.8125 192.667969 39.179688 C 195.269531 51.425781 201.082031 61.871094 210.636719 70.039062 C 209.5625 86.109375 208.957031 103.578125 210.191406 121.457031 C 195.761719 114.433594 184.15625 105.84375 175.59375 96.464844 C 166.996094 87.058594 161.464844 76.859375 159.210938 66.664062 C 159.109375 67.292969 159.132812 67.894531 159.304688 68.46875 C 159.039062 68.203125 158.753906 68.042969 158.457031 67.960938 C 160.886719 77.972656 166.414062 87.945312 174.832031 97.164062 C 183.589844 106.746094 195.480469 115.511719 210.277344 122.644531 C 211.148438 134.734375 211.542969 145.304688 211.859375 154.578125 C 182.480469 149.386719 153.25 129.855469 137.832031 104.171875 C 137.726562 104.625 137.597656 105.0625 137.429688 105.496094 C 153.144531 131.082031 182.421875 150.496094 211.894531 155.628906 C 212.054688 160.328125 212.203125 165.027344 212.421875 169.722656 C 202.316406 170.335938 192.191406 169.382812 182.296875 167.316406 C 176.171875 166.039062 171.335938 164.648438 166.664062 162.960938 C 162 161.277344 157.472656 159.277344 151.980469 156.785156 C 150.085938 155.925781 148.257812 155.199219 146.515625 154.507812 C 140.945312 152.292969 136.273438 150.4375 132.359375 145.183594 C 132.445312 145.898438 132.570312 146.605469 132.734375 147.308594 C 136.53125 151.652344 140.957031 153.410156 146.132812 155.464844 C 147.84375 156.144531 149.640625 156.859375 151.554688 157.726562 C 157.054688 160.222656 161.59375 162.226562 166.316406 163.933594 C 171.035156 165.640625 175.914062 167.039062 182.082031 168.328125 C 192.070312 170.410156 202.160156 171.378906 212.355469 170.761719 C 212.367188 184.664062 213.832031 200.082031 217.953125 216.199219 C 219.59375 222.609375 220.785156 228.207031 223.652344 234.167969 C 224.851562 236.660156 228.410156 241.027344 227.546875 243.226562 C 228.316406 241.574219 228.714844 240.089844 228.816406 239.28125 C 228.988281 237.90625 225.570312 233.5625 224.808594 231.984375 C 223.253906 228.753906 222.15625 225.671875 221.269531 222.523438 C 219.90625 217.679688 219.042969 212.671875 217.796875 206.703125 C 216.894531 202.398438 216.054688 198.378906 215.277344 194.640625 C 213.632812 187.90625 213.625 176.023438 213.667969 173.933594 C 245.984375 171.1875 264.8125 157.078125 276.582031 148.058594 C 276.71875 147.519531 276.816406 147.015625 276.871094 146.539062 L 276.464844 146.847656 C 264.820312 155.769531 246.074219 170.132812 213.609375 172.898438 Z M 286.539062 141.199219 L 286.542969 141.164062 L 286.542969 141.132812 L 286.546875 141.097656 L 286.546875 141.082031 L 286.554688 141.046875 L 286.554688 141.015625 L 286.558594 140.996094 L 286.558594 140.960938 L 286.5625 140.945312 L 286.5625 140.890625 L 286.566406 140.875 L 286.566406 140.855469 L 286.570312 140.832031 L 286.570312 140.769531 L 286.574219 140.75 L 286.578125 140.734375 L 286.578125 140.679688 C 286.566406 140.871094 286.554688 141.054688 286.535156 141.234375 L 286.535156 141.21875 Z M 286.601562 140.085938 L 286.601562 140.183594 L 286.597656 140.222656 L 286.597656 140.332031 L 286.59375 140.351562 L 286.59375 140.390625 L 286.589844 140.40625 L 286.589844 140.484375 L 286.585938 140.5 L 286.585938 140.589844 L 286.582031 140.609375 L 286.582031 140.664062 L 286.578125 140.679688 C 286.589844 140.488281 286.597656 140.292969 286.601562 140.085938 Z M 256.230469 62.167969 C 253.378906 57.835938 252.132812 53.042969 248.96875 49.332031 C 247.03125 47.054688 244.03125 44.980469 243.164062 49.160156 C 241.964844 54.945312 243.0625 55.003906 239.246094 61.070312 C 238.757812 61.847656 238.066406 62.886719 237.234375 64.019531 C 239.191406 62.648438 241.371094 62.785156 243.054688 64.253906 C 247.003906 67.695312 245.664062 76.042969 246.339844 81.171875 C 246.40625 81.683594 246.496094 82.167969 246.601562 82.621094 C 251.46875 77.738281 255.757812 72.320312 259.222656 66.300781 C 258.128906 64.914062 257.132812 63.535156 256.230469 62.167969 Z M 279.808594 170.664062 C 276.335938 173.6875 273.246094 173.832031 269.980469 176.339844 C 271.933594 175.839844 273.066406 176.640625 272.792969 178.875 C 272.378906 182.3125 269.992188 184.75 269.144531 187.8125 C 268.90625 188.683594 268.851562 189.457031 268.984375 190.132812 C 269.726562 192.796875 267.816406 196.257812 263.261719 200.507812 C 264.410156 199.617188 265.53125 198.667969 266.617188 197.675781 C 271.667969 193.066406 275.578125 187.445312 278.355469 180.820312 C 281.308594 173.839844 285.421875 168.515625 285.074219 164.644531 C 283.339844 167.109375 281.585938 169.117188 279.808594 170.664062 Z M 223.964844 67.523438 C 224.21875 66.441406 224.804688 65.191406 225.792969 63.824219 C 228.9375 59.476562 237.046875 54.023438 237.328125 48.632812 C 237.386719 47.519531 236.972656 46.632812 236.085938 45.980469 C 234.160156 44.246094 232.300781 42.152344 230.441406 39.953125 C 228.144531 45.207031 225.390625 50.183594 222.195312 54.855469 C 222.785156 58.894531 225.199219 61.722656 223.964844 67.523438 Z M 272.582031 157.136719 C 270.523438 163.332031 275.046875 165.660156 265.570312 171.539062 C 275.09375 167.621094 281.132812 163.039062 283.691406 157.792969 C 285.640625 153.792969 284.75 151.207031 285.363281 147.230469 C 285.789062 144.472656 286.339844 143.140625 286.535156 141.234375 C 284.039062 142.34375 280.960938 144.707031 277.089844 147.671875 L 276.582031 148.058594 C 276.21875 149.5 275.558594 151.15625 274.609375 153.027344 C 273.664062 154.550781 272.988281 155.921875 272.582031 157.136719 Z M 229.695312 39.070312 C 227.5625 44.035156 225.019531 48.75 222.070312 53.195312 C 222.066406 52.90625 222.078125 52.609375 222.097656 52.300781 C 222.828125 42.1875 229.304688 36.945312 219.257812 27.871094 C 222 30.070312 224.523438 32.902344 226.980469 35.816406 C 227.894531 36.898438 228.796875 37.992188 229.695312 39.070312 " fill-opacity="1" fill-rule="nonzero"/></g></svg>